# xmcd CD database file
#
# Track frame offsets:
#	150
#	16586
#	32295
#	49574
#	65330
#	82677
#	96998
#	112041
#	126527
#	140636
#	157940
#	173437
#	191782
#	207095
#	227329
#	242572
#	257918
#
# Disc length: 3632 seconds
#
# Revision: 0
# Processed by: cddbd v1.5.2PL0 Copyright (c) Steve Scherf et al.
# Submitted via: CDex 1.70beta2
#
DISCID=d10e2e11
DTITLE=Renan and Silvier - Volume 3
DYEAR=2009
DGENRE=Country
TTITLE0=Senta Que é de Menta
TTITLE1=Dói, Dói
TTITLE2=Ela Não Quer Voltar
TTITLE3=O Encanto (Cristal Quebrado)
TTITLE4=Outro Alguém Para Amar
TTITLE5=De Chorar
TTITLE6=O Meu Amor
TTITLE7=Sou Raparigueiro
TTITLE8=No Escurinho do Cinema
TTITLE9=A Vida Não Presta
TTITLE10=Te Quero Só Pra Mim
TTITLE11=Eu a Viola e a Lua
TTITLE12=Princesa do Meus Sonhos
TTITLE13=Eu e Deus no Sertão
TTITLE14=Eu Quero Ser Seu Namorado
TTITLE15=Por Amor (Part. Ivo Pessoa)
TTITLE16=Tum ,Tum, Tum no Meu Peito (Part. André and Adriano)
EXTD=YEAR: 2009
EXTT0=
EXTT1=
EXTT2=
EXTT3=
EXTT4=
EXTT5=
EXTT6=
EXTT7=
EXTT8=
EXTT9=
EXTT10=
EXTT11=
EXTT12=
EXTT13=
EXTT14=
EXTT15=
EXTT16=
PLAYORDER=
